REM DIRINDEX 1\2,1\3,1\4\5,1\4\6
REM DIRNAME "folder01","folder02","folder03","folder04","folder05","folder06"
TITLE ""
FILE "Step6_Track76.mp3" MP3
  TRACK 01 AUDIO
    TITLE "0:"
    INDEX 01 00:00:00
  TRACK 02 AUDIO
    TITLE "6:cjc169_0876"
    INDEX 01 00:00:22
  TRACK 03 AUDIO
    TITLE "0:"
    INDEX 01 00:01:69
  TRACK 04 AUDIO
    TITLE "6:cjc169_0877"
    INDEX 01 00:02:72
  TRACK 05 AUDIO
    TITLE "0:"
    INDEX 01 00:04:16
  TRACK 06 AUDIO
    TITLE "5:cjc169_0878"
    INDEX 01 00:04:69
  TRACK 07 AUDIO
    TITLE "0:"
    INDEX 01 00:08:10
  TRACK 08 AUDIO
    TITLE "6:cjc169_0879"
    INDEX 01 00:08:69
  TRACK 09 AUDIO
    TITLE "0:"
    INDEX 01 00:10:15
  TRACK 10 AUDIO
    TITLE "5:cjc169_0880"
    INDEX 01 00:10:66
  TRACK 11 AUDIO
    TITLE "0:"
    INDEX 01 00:14:52
  TRACK 12 AUDIO
    TITLE "6:cjc169_0881"
    INDEX 01 00:15:35
  TRACK 13 AUDIO
    TITLE "0:"
    INDEX 01 00:16:60
  TRACK 14 AUDIO
    TITLE "5:cjc169_0882"
    INDEX 01 00:17:44
  TRACK 15 AUDIO
    TITLE "0:"
    INDEX 01 00:20:37
  TRACK 16 AUDIO
    TITLE "6:cjc169_0883"
    INDEX 01 00:21:26
  TRACK 17 AUDIO
    TITLE "0:"
    INDEX 01 00:22:49
  TRACK 18 AUDIO
    TITLE "5:cjc169_0884"
    INDEX 01 00:23:25
  TRACK 19 AUDIO
    TITLE "0:"
    INDEX 01 00:27:21
  TRACK 20 AUDIO
    TITLE "6:cjc169_0885"
    INDEX 01 00:28:09
  TRACK 21 AUDIO
    TITLE "0:"
    INDEX 01 00:29:30
  TRACK 22 AUDIO
    TITLE "5:cjc169_0886"
    INDEX 01 00:30:15
  TRACK 23 AUDIO
    TITLE "0:"
    INDEX 01 00:33:22
  TRACK 24 AUDIO
    TITLE "6:cjc169_0887"
    INDEX 01 00:34:11
  TRACK 25 AUDIO
    TITLE "0:"
    INDEX 01 00:35:34
  TRACK 26 AUDIO
    TITLE "5:cjc169_0888"
    INDEX 01 00:36:12
  TRACK 27 AUDIO
    TITLE "0:"
    INDEX 01 00:39:30
  TRACK 28 AUDIO
    TITLE "6:cjc169_0889"
    INDEX 01 00:40:14
  TRACK 29 AUDIO
    TITLE "0:"
    INDEX 01 00:41:37
  TRACK 30 AUDIO
    TITLE "5:cjc169_0890"
    INDEX 01 00:42:24
  TRACK 31 AUDIO
    TITLE "0:"
    INDEX 01 00:46:14
  TRACK 32 AUDIO
    TITLE "6:cjc169_0891"
    INDEX 01 00:46:71
  TRACK 33 AUDIO
    TITLE "0:"
    INDEX 01 00:48:11
  TRACK 34 AUDIO
    TITLE "5:cjc169_0892"
    INDEX 01 00:48:64
  TRACK 35 AUDIO
    TITLE "0:"
    INDEX 01 00:52:33
  TRACK 36 AUDIO
    TITLE "6:cjc169_0893"
    INDEX 01 00:53:16
  TRACK 37 AUDIO
    TITLE "0:"
    INDEX 01 00:54:41
  TRACK 38 AUDIO
    TITLE "5:cjc169_0894"
    INDEX 01 00:55:21
  TRACK 39 AUDIO
    TITLE "0:"
    INDEX 01 00:58:25
  TRACK 40 AUDIO
    TITLE "6:cjc169_0895"
    INDEX 01 00:59:11
  TRACK 41 AUDIO
    TITLE "0:"
    INDEX 01 01:00:38
  TRACK 42 AUDIO
    TITLE "5:cjc169_0896"
    INDEX 01 01:01:18
  TRACK 43 AUDIO
    TITLE "0:"
    INDEX 01 01:04:36
  TRACK 44 AUDIO
    TITLE "6:cjc169_0897"
    INDEX 01 01:05:18
  TRACK 45 AUDIO
    TITLE "0:"
    INDEX 01 01:06:43
  TRACK 46 AUDIO
    TITLE "5:cjc169_0898"
    INDEX 01 01:07:22
  TRACK 47 AUDIO
    TITLE "0:"
    INDEX 01 01:10:48
  TRACK 48 AUDIO
    TITLE "6:cjc169_0899"
    INDEX 01 01:11:32
  TRACK 49 AUDIO
    TITLE "0:"
    INDEX 01 01:12:55
  TRACK 50 AUDIO
    TITLE "5:cjc169_0900"
    INDEX 01 01:13:37
  TRACK 51 AUDIO
    TITLE "0:"
    INDEX 01 01:17:52
  TRACK 52 AUDIO
    TITLE "6:cjc169_0901"
    INDEX 01 01:18:40
  TRACK 53 AUDIO
    TITLE "0:"
    INDEX 01 01:20:01
  TRACK 54 AUDIO
    TITLE "5:cjc169_0902"
    INDEX 01 01:20:54
  TRACK 55 AUDIO
    TITLE "0:"
    INDEX 01 01:24:56
  TRACK 56 AUDIO
    TITLE "6:cjc169_0903"
    INDEX 01 01:25:36
  TRACK 57 AUDIO
    TITLE "0:"
    INDEX 01 01:27:11
  TRACK 58 AUDIO
    TITLE "5:cjc169_0904"
    INDEX 01 01:27:60
  TRACK 59 AUDIO
    TITLE "0:"
    INDEX 01 01:31:44
  TRACK 60 AUDIO
    TITLE "6:cjc169_0905"
    INDEX 01 01:32:28
  TRACK 61 AUDIO
    TITLE "0:"
    INDEX 01 01:33:61
  TRACK 62 AUDIO
    TITLE "5:cjc169_0906"
    INDEX 01 01:34:35
  TRACK 63 AUDIO
    TITLE "0:"
    INDEX 01 01:38:29
  TRACK 64 AUDIO
    TITLE "6:cjc169_0907"
    INDEX 01 01:39:05
  TRACK 65 AUDIO
    TITLE "0:"
    INDEX 01 01:40:53
  TRACK 66 AUDIO
    TITLE "5:cjc169_0908"
    INDEX 01 01:41:19
  TRACK 67 AUDIO
    TITLE "0:"
    INDEX 01 01:44:71
  TRACK 68 AUDIO
    TITLE "6:cjc169_0909"
    INDEX 01 01:45:52
  TRACK 69 AUDIO
    TITLE "0:"
    INDEX 01 01:47:18
  TRACK 70 AUDIO
    TITLE "5:cjc169_0910"
    INDEX 01 01:47:69
  TRACK 71 AUDIO
    TITLE "0:"
    INDEX 01 01:50:46
  TRACK 72 AUDIO
    TITLE "6:cjc169_0911"
    INDEX 01 01:51:27
  TRACK 73 AUDIO
    TITLE "0:"
    INDEX 01 01:52:68
  TRACK 74 AUDIO
    TITLE "5:cjc169_0912"
    INDEX 01 01:53:38
  TRACK 75 AUDIO
    TITLE "0:"
    INDEX 01 01:56:38
  TRACK 76 AUDIO
    TITLE "6:cjc169_0913"
    INDEX 01 01:57:28
  TRACK 77 AUDIO
    TITLE "0:"
    INDEX 01 01:58:61
  TRACK 78 AUDIO
    TITLE "5:cjc169_0914"
    INDEX 01 01:59:43
  TRACK 79 AUDIO
    TITLE "0:"
    INDEX 01 02:02:31
  TRACK 80 AUDIO
    TITLE "6:cjc169_0915"
    INDEX 01 02:03:15
  TRACK 81 AUDIO
    TITLE "0:"
    INDEX 01 02:04:42
  TRACK 82 AUDIO
    TITLE "5:cjc169_0916"
    INDEX 01 02:05:18
  TRACK 83 AUDIO
    TITLE "0:"
    INDEX 01 02:07:34
  TRACK 84 AUDIO
    TITLE "6:cjc169_0917"
    INDEX 01 02:08:34
  TRACK 85 AUDIO
    TITLE "0:"
    INDEX 01 02:09:69
  TRACK 86 AUDIO
    TITLE "5:cjc169_0918"
    INDEX 01 02:10:48
  TRACK 87 AUDIO
    TITLE "0:"
    INDEX 01 02:14:44
  TRACK 88 AUDIO
    TITLE "6:cjc169_0919"
    INDEX 01 02:15:26
  TRACK 89 AUDIO
    TITLE "0:"
    INDEX 01 02:16:73
  TRACK 90 AUDIO
    TITLE "5:cjc169_0920"
    INDEX 01 02:17:50
  TRACK 91 AUDIO
    TITLE "0:"
    INDEX 01 02:22:40
  TRACK 92 AUDIO
    TITLE "6:cjc169_0921"
    INDEX 01 02:23:28
  TRACK 93 AUDIO
    TITLE "0:"
    INDEX 01 02:24:70
  TRACK 94 AUDIO
    TITLE "5:cjc169_0922"
    INDEX 01 02:25:50
  TRACK 95 AUDIO
    TITLE "0:"
    INDEX 01 02:31:29
  TRACK 96 AUDIO
    TITLE "6:cjc169_0923"
    INDEX 01 02:32:23
  TRACK 97 AUDIO
    TITLE "0:"
    INDEX 01 02:33:63
  TRACK 98 AUDIO
    TITLE "5:cjc169_0924"
    INDEX 01 02:34:37
  TRACK 99 AUDIO
    TITLE "0:"
    INDEX 01 02:38:00
  TRACK 100 AUDIO
    TITLE "6:cjc169_0925"
    INDEX 01 02:38:72
  TRACK 101 AUDIO
    TITLE "0:"
    INDEX 01 02:40:32
  TRACK 102 AUDIO
    TITLE "5:cjc169_0926"
    INDEX 01 02:41:16
  TRACK 103 AUDIO
    TITLE "0:"
    INDEX 01 02:46:23
  TRACK 104 AUDIO
    TITLE "6:cjc169_0927"
    INDEX 01 02:47:03
  TRACK 105 AUDIO
    TITLE "0:"
    INDEX 01 02:48:51
  TRACK 106 AUDIO
    TITLE "5:cjc169_0928"
    INDEX 01 02:49:25
  TRACK 107 AUDIO
    TITLE "0:"
    INDEX 01 02:53:56
  TRACK 108 AUDIO
    TITLE "6:cjc169_0929"
    INDEX 01 02:54:36
  TRACK 109 AUDIO
    TITLE "0:"
    INDEX 01 02:56:00
  TRACK 110 AUDIO
    TITLE "5:cjc169_0930"
    INDEX 01 02:56:54
  TRACK 111 AUDIO
    TITLE "0:"
    INDEX 01 03:02:51
  TRACK 112 AUDIO
    TITLE "6:cjc169_0931"
    INDEX 01 03:03:35
  TRACK 113 AUDIO
    TITLE "0:"
    INDEX 01 03:04:72
  TRACK 114 AUDIO
    TITLE "5:cjc169_0932"
    INDEX 01 03:05:45
  TRACK 115 AUDIO
    TITLE "0:"
    INDEX 01 03:11:66
  TRACK 116 AUDIO
    TITLE "6:cjc169_0933"
    INDEX 01 03:12:48
  TRACK 117 AUDIO
    TITLE "0:"
    INDEX 01 03:14:07
  TRACK 118 AUDIO
    TITLE "5:cjc169_0934"
    INDEX 01 03:14:62
  TRACK 119 AUDIO
    TITLE "0:"
    INDEX 01 03:18:68
  TRACK 120 AUDIO
    TITLE "6:cjc169_0935"
    INDEX 01 03:19:55
  TRACK 121 AUDIO
    TITLE "0:"
    INDEX 01 03:21:09
  TRACK 122 AUDIO
    TITLE "5:cjc169_0936"
    INDEX 01 03:21:56
  TRACK 123 AUDIO
    TITLE "0:"
    INDEX 01 03:26:05
  TRACK 124 AUDIO
    TITLE "6:cjc169_0937"
    INDEX 01 03:26:59
  TRACK 125 AUDIO
    TITLE "0:"
    INDEX 01 03:28:23
  TRACK 126 AUDIO
    TITLE "5:cjc169_0938"
    INDEX 01 03:29:01
  TRACK 127 AUDIO
    TITLE "0:"
    INDEX 01 03:31:27
  TRACK 128 AUDIO
    TITLE "6:cjc169_0939"
    INDEX 01 03:32:05
  TRACK 129 AUDIO
    TITLE "0:"
    INDEX 01 03:33:54
  TRACK 130 AUDIO
    TITLE "5:cjc169_0940"
    INDEX 01 03:34:26
  TRACK 131 AUDIO
    TITLE "0:"
    INDEX 01 03:36:13
  TRACK 132 AUDIO
    TITLE "6:cjc169_0941"
    INDEX 01 03:37:02
  TRACK 133 AUDIO
    TITLE "0:"
    INDEX 01 03:38:41
  TRACK 134 AUDIO
    TITLE "5:cjc169_0942"
    INDEX 01 03:39:27
  TRACK 135 AUDIO
    TITLE "0:"
    INDEX 01 03:43:25
  TRACK 136 AUDIO
    TITLE "6:cjc169_0943"
    INDEX 01 03:44:02
  TRACK 137 AUDIO
    TITLE "0:"
    INDEX 01 03:45:51
  TRACK 138 AUDIO
    TITLE "5:cjc169_0944"
    INDEX 01 03:46:29
  TRACK 139 AUDIO
    TITLE "0:"
    INDEX 01 03:50:15
  TRACK 140 AUDIO
    TITLE "6:cjc169_0945"
    INDEX 01 03:50:74
  TRACK 141 AUDIO
    TITLE "0:"
    INDEX 01 03:52:33
  TRACK 142 AUDIO
    TITLE "5:cjc169_0946"
    INDEX 01 03:53:15
  TRACK 143 AUDIO
    TITLE "0:"
    INDEX 01 03:56:08
  TRACK 144 AUDIO
    TITLE "6:cjc169_0947"
    INDEX 01 03:56:61
  TRACK 145 AUDIO
    TITLE "0:"
    INDEX 01 03:58:36
  TRACK 146 AUDIO
    TITLE "5:cjc169_0948"
    INDEX 01 03:59:02
  TRACK 147 AUDIO
    TITLE "0:"
    INDEX 01 04:03:21
  TRACK 148 AUDIO
    TITLE "6:cjc169_0949"
    INDEX 01 04:04:07
  TRACK 149 AUDIO
    TITLE "0:"
    INDEX 01 04:05:52
  TRACK 150 AUDIO
    TITLE "5:cjc169_0950"
    INDEX 01 04:06:30
  TRACK 151 AUDIO
    TITLE "0:"
    INDEX 01 04:09:32
  TRACK 152 AUDIO
    TITLE "6:cjc169_0951"
    INDEX 01 04:10:23
  TRACK 153 AUDIO
    TITLE "0:"
    INDEX 01 04:11:54
  TRACK 154 AUDIO
    TITLE "5:cjc169_0952"
    INDEX 01 04:12:36
  TRACK 155 AUDIO
    TITLE "0:"
    INDEX 01 04:16:04
  TRACK 156 AUDIO
    TITLE "6:cjc169_0953"
    INDEX 01 04:16:67
  TRACK 157 AUDIO
    TITLE "0:"
    INDEX 01 04:18:31
  TRACK 158 AUDIO
    TITLE "5:cjc169_0954"
    INDEX 01 04:19:15
  TRACK 159 AUDIO
    TITLE "0:"
    INDEX 01 04:21:64
  TRACK 160 AUDIO
    TITLE "6:cjc169_0955"
    INDEX 01 04:22:40
  TRACK 161 AUDIO
    TITLE "0:"
    INDEX 01 04:23:73
  TRACK 162 AUDIO
    TITLE "5:cjc169_0956"
    INDEX 01 04:24:51
  TRACK 163 AUDIO
    TITLE "0:"
    INDEX 01 04:26:50
  TRACK 164 AUDIO
    TITLE "6:cjc169_0957"
    INDEX 01 04:27:36
  TRACK 165 AUDIO
    TITLE "0:"
    INDEX 01 04:28:66
  TRACK 166 AUDIO
    TITLE "5:cjc169_0958"
    INDEX 01 04:29:44
  TRACK 167 AUDIO
    TITLE "0:"
    INDEX 01 04:31:59
  TRACK 168 AUDIO
    TITLE "6:cjc169_0959"
    INDEX 01 04:32:35
  TRACK 169 AUDIO
    TITLE "0:"
    INDEX 01 04:34:10
  TRACK 170 AUDIO
    TITLE "5:cjc169_0960"
    INDEX 01 04:34:57
  TRACK 171 AUDIO
    TITLE "0:"
    INDEX 01 04:36:70
  TRACK 172 AUDIO
    TITLE "6:cjc169_0961"
    INDEX 01 04:37:56
  TRACK 173 AUDIO
    TITLE "0:"
    INDEX 01 04:39:19
  TRACK 174 AUDIO
    TITLE "5:cjc169_0962"
    INDEX 01 04:40:09
  TRACK 175 AUDIO
    TITLE "0:"
    INDEX 01 04:43:46
  TRACK 176 AUDIO
    TITLE "6:cjc169_0963"
    INDEX 01 04:44:26
  TRACK 177 AUDIO
    TITLE "0:"
    INDEX 01 04:46:04
  TRACK 178 AUDIO
    TITLE "5:cjc169_0964"
    INDEX 01 04:46:51
  TRACK 179 AUDIO
    TITLE "0:"
    INDEX 01 04:49:45
  TRACK 180 AUDIO
    TITLE "6:cjc169_0965"
    INDEX 01 04:50:21
  TRACK 181 AUDIO
    TITLE "0:"
    INDEX 01 04:51:60
  TRACK 182 AUDIO
    TITLE "5:cjc169_0966"
    INDEX 01 04:52:36
  TRACK 183 AUDIO
    TITLE "0:"
    INDEX 01 04:55:12
  TRACK 184 AUDIO
    TITLE "6:cjc169_0967"
    INDEX 01 04:55:67
  TRACK 185 AUDIO
    TITLE "0:"
    INDEX 01 04:57:45
  TRACK 186 AUDIO
    TITLE "5:cjc169_0968"
    INDEX 01 04:58:19
  TRACK 187 AUDIO
    TITLE "0:"
    INDEX 01 05:01:21
  TRACK 188 AUDIO
    TITLE "6:cjc169_0969"
    INDEX 01 05:02:05
  TRACK 189 AUDIO
    TITLE "0:"
    INDEX 01 05:03:41
  TRACK 190 AUDIO
    TITLE "5:cjc169_0970"
    INDEX 01 05:04:23
  TRACK 191 AUDIO
    TITLE "0:"
    INDEX 01 05:07:49
  TRACK 192 AUDIO
    TITLE "6:cjc169_0971"
    INDEX 01 05:08:27
  TRACK 193 AUDIO
    TITLE "0:"
    INDEX 01 05:09:65
  TRACK 194 AUDIO
    TITLE "5:cjc169_0972"
    INDEX 01 05:10:41
  TRACK 195 AUDIO
    TITLE "0:"
    INDEX 01 05:13:30
  TRACK 196 AUDIO
    TITLE "6:cjc169_0973"
    INDEX 01 05:14:23
  TRACK 197 AUDIO
    TITLE "0:"
    INDEX 01 05:15:58
  TRACK 198 AUDIO
    TITLE "5:cjc169_0974"
    INDEX 01 05:16:32
  TRACK 199 AUDIO
    TITLE "0:"
    INDEX 01 05:19:25
  TRACK 200 AUDIO
    TITLE "6:cjc169_0975"
    INDEX 01 05:20:01
  TRACK 201 AUDIO
    TITLE "0:"
    INDEX 01 05:21:35
  TRACK 202 AUDIO
    TITLE "5:cjc169_0976"
    INDEX 01 05:22:09
  TRACK 203 AUDIO
    TITLE "5:cjc169_0977"
    INDEX 01 05:25:04
  TRACK 204 AUDIO
    TITLE "5:cjc169_0978"
    INDEX 01 05:27:40
  TRACK 205 AUDIO
    TITLE "0:"
    INDEX 01 05:29:56
  TRACK 206 AUDIO
    TITLE "6:cjc169_0979"
    INDEX 01 05:30:38
  TRACK 207 AUDIO
    TITLE "0:"
    INDEX 01 05:31:73
  TRACK 208 AUDIO
    TITLE "5:cjc169_0980"
    INDEX 01 05:32:49
  TRACK 209 AUDIO
    TITLE "0:"
    INDEX 01 05:34:71
  TRACK 210 AUDIO
    TITLE "6:cjc169_0981"
    INDEX 01 05:35:53
  TRACK 211 AUDIO
    TITLE "0:"
    INDEX 01 05:37:22
  TRACK 212 AUDIO
    TITLE "5:cjc169_0982"
    INDEX 01 05:37:70
  TRACK 213 AUDIO
    TITLE "0:"
    INDEX 01 05:40:35
  TRACK 214 AUDIO
    TITLE "6:cjc169_0983"
    INDEX 01 05:41:09
  TRACK 215 AUDIO
    TITLE "0:"
    INDEX 01 05:42:51
  TRACK 216 AUDIO
    TITLE "5:cjc169_0984"
    INDEX 01 05:43:25
  TRACK 217 AUDIO
    TITLE "0:"
    INDEX 01 05:46:49
  TRACK 218 AUDIO
    TITLE "6:cjc169_0985"
    INDEX 01 05:47:33
  TRACK 219 AUDIO
    TITLE "0:"
    INDEX 01 05:49:04
  TRACK 220 AUDIO
    TITLE "5:cjc169_0986"
    INDEX 01 05:49:57
  TRACK 221 AUDIO
    TITLE "0:"
    INDEX 01 05:53:25
  TRACK 222 AUDIO
    TITLE "6:cjc169_0987"
    INDEX 01 05:54:09
  TRACK 223 AUDIO
    TITLE "0:"
    INDEX 01 05:55:46
  TRACK 224 AUDIO
    TITLE "5:cjc169_0988"
    INDEX 01 05:56:32
  TRACK 225 AUDIO
    TITLE "0:"
    INDEX 01 05:59:46
  TRACK 226 AUDIO
    TITLE "6:cjc169_0989"
    INDEX 01 06:00:24
  TRACK 227 AUDIO
    TITLE "0:"
    INDEX 01 06:01:72
  TRACK 228 AUDIO
    TITLE "5:cjc169_0990"
    INDEX 01 06:02:46
  TRACK 229 AUDIO
    TITLE "0:"
    INDEX 01 06:05:33
  TRACK 230 AUDIO
    TITLE "6:cjc169_0991"
    INDEX 01 06:06:24
  TRACK 231 AUDIO
    TITLE "0:"
    INDEX 01 06:07:61
  TRACK 232 AUDIO
    TITLE "5:cjc169_0992"
    INDEX 01 06:08:48
  TRACK 233 AUDIO
    TITLE "0:"
    INDEX 01 06:10:49
  TRACK 234 AUDIO
    TITLE "6:cjc169_0993"
    INDEX 01 06:11:29
  TRACK 235 AUDIO
    TITLE "0:"
    INDEX 01 06:12:68
  TRACK 236 AUDIO
    TITLE "5:cjc169_0994"
    INDEX 01 06:13:40
  TRACK 237 AUDIO
    TITLE "0:"
    INDEX 01 06:16:26
  TRACK 238 AUDIO
    TITLE "6:cjc169_0995"
    INDEX 01 06:17:14
  TRACK 239 AUDIO
    TITLE "0:"
    INDEX 01 06:18:51
  TRACK 240 AUDIO
    TITLE "5:cjc169_0996"
    INDEX 01 06:19:23
  TRACK 241 AUDIO
    TITLE "0:"
    INDEX 01 06:22:64
  TRACK 242 AUDIO
    TITLE "6:cjc169_0997"
    INDEX 01 06:23:42
  TRACK 243 AUDIO
    TITLE "0:"
    INDEX 01 06:25:06
  TRACK 244 AUDIO
    TITLE "5:cjc169_0998"
    INDEX 01 06:25:51
  TRACK 245 AUDIO
    TITLE "0:"
    INDEX 01 06:28:39
  TRACK 246 AUDIO
    TITLE "6:cjc169_0999"
    INDEX 01 06:29:25
  TRACK 247 AUDIO
    TITLE "0:"
    INDEX 01 06:30:66
  TRACK 248 AUDIO
    TITLE "5:cjc169_1000"
    INDEX 01 06:31:50
  TRACK 249 AUDIO
    TITLE "0:"
    INDEX 01 06:34:19
  TRACK 250 AUDIO
    TITLE "6:cjc169_1001"
    INDEX 01 06:35:02
  TRACK 251 AUDIO
    TITLE "0:"
    INDEX 01 06:36:53
  TRACK 252 AUDIO
    TITLE "5:cjc169_1002"
    INDEX 01 06:37:31
  TRACK 253 AUDIO
    TITLE "0:"
    INDEX 01 06:40:23
  TRACK 254 AUDIO
    TITLE "6:cjc169_1003"
    INDEX 01 06:41:05
  TRACK 255 AUDIO
    TITLE "0:"
    INDEX 01 06:42:47
  TRACK 256 AUDIO
    TITLE "5:cjc169_1004"
    INDEX 01 06:43:31
  TRACK 257 AUDIO
    TITLE "0:"
    INDEX 01 06:45:73
  TRACK 258 AUDIO
    TITLE "6:cjc169_1005"
    INDEX 01 06:46:49
  TRACK 259 AUDIO
    TITLE "0:"
    INDEX 01 06:48:24
  TRACK 260 AUDIO
    TITLE "5:cjc169_1006"
    INDEX 01 06:48:72
  TRACK 261 AUDIO
    TITLE "0:"
    INDEX 01 06:51:44
  TRACK 262 AUDIO
    TITLE "6:cjc169_1007"
    INDEX 01 06:52:32
  TRACK 263 AUDIO
    TITLE "0:"
    INDEX 01 06:54:04
  TRACK 264 AUDIO
    TITLE "5:cjc169_1008"
    INDEX 01 06:54:58
  TRACK 265 AUDIO
    TITLE "0:"
    INDEX 01 06:58:13
  TRACK 266 AUDIO
    TITLE "6:cjc169_1009"
    INDEX 01 06:58:66
  TRACK 267 AUDIO
    TITLE "0:"
    INDEX 01 07:00:47
  TRACK 268 AUDIO
    TITLE "5:cjc169_1010"
    INDEX 01 07:01:23
  TRACK 269 AUDIO
    TITLE "0:"
    INDEX 01 07:03:52
  TRACK 270 AUDIO
    TITLE "6:cjc169_1011"
    INDEX 01 07:04:35
  TRACK 271 AUDIO
    TITLE "0:"
    INDEX 01 07:06:09
  TRACK 272 AUDIO
    TITLE "5:cjc169_1012"
    INDEX 01 07:06:64
  TRACK 273 AUDIO
    TITLE "0:"
    INDEX 01 07:09:52
  TRACK 274 AUDIO
    TITLE "6:cjc169_1013"
    INDEX 01 07:10:34
  TRACK 275 AUDIO
    TITLE "0:"
    INDEX 01 07:11:73
  TRACK 276 AUDIO
    TITLE "5:cjc169_1014"
    INDEX 01 07:12:52
  TRACK 277 AUDIO
    TITLE "0:"
    INDEX 01 07:17:30
  TRACK 278 AUDIO
    TITLE "6:cjc169_1015"
    INDEX 01 07:18:20
  TRACK 279 AUDIO
    TITLE "0:"
    INDEX 01 07:19:60
  TRACK 280 AUDIO
    TITLE "5:cjc169_1016"
    INDEX 01 07:20:34
  TRACK 281 AUDIO
    TITLE "0:"
    INDEX 01 07:23:58
  TRACK 282 AUDIO
    TITLE "6:cjc169_1017"
    INDEX 01 07:24:40
  TRACK 283 AUDIO
    TITLE "0:"
    INDEX 01 07:26:04
  TRACK 284 AUDIO
    TITLE "5:cjc169_1018"
    INDEX 01 07:26:51
  TRACK 285 AUDIO
    TITLE "5:cjc169_1019"
    INDEX 01 07:28:28
  TRACK 286 AUDIO
    TITLE "0:"
    INDEX 01 07:30:05
  TRACK 287 AUDIO
    TITLE "6:cjc169_1020"
    INDEX 01 07:30:66
  TRACK 288 AUDIO
    TITLE "0:"
    INDEX 01 07:32:34
  TRACK 289 AUDIO
    TITLE "5:cjc169_1021"
    INDEX 01 07:33:13
  TRACK 290 AUDIO
    TITLE "5:cjc169_1022"
    INDEX 01 07:35:14
  TRACK 291 AUDIO
    TITLE "0:"
    INDEX 01 07:37:15
  TRACK 292 AUDIO
    TITLE "6:cjc169_1023"
    INDEX 01 07:37:72
  TRACK 293 AUDIO
    TITLE "0:"
    INDEX 01 07:39:53
  TRACK 294 AUDIO
    TITLE "5:cjc169_1024"
    INDEX 01 07:40:29
  TRACK 295 AUDIO
    TITLE "5:cjc169_1025"
    INDEX 01 07:43:73
  TRACK 296 AUDIO
    TITLE "0:"
    INDEX 01 07:46:45
  TRACK 297 AUDIO
    TITLE "6:cjc169_1026"
    INDEX 01 07:47:41
  TRACK 298 AUDIO
    TITLE "0:"
    INDEX 01 07:49:18
  TRACK 299 AUDIO
    TITLE "5:cjc169_1027"
    INDEX 01 07:49:69
  TRACK 300 AUDIO
    TITLE "0:"
    INDEX 01 07:51:64
  TRACK 301 AUDIO
    TITLE "6:cjc169_1028"
    INDEX 01 07:51:66
  TRACK 302 AUDIO
    TITLE "0:"
    INDEX 01 07:52:64
  TRACK 303 AUDIO
    TITLE "5:cjc169_1029"
    INDEX 01 07:52:66
  TRACK 304 AUDIO
    TITLE "0:"
    INDEX 01 07:54:21
  TRACK 305 AUDIO
    TITLE "6:cjc169_1030"
    INDEX 01 07:54:41
  TRACK 306 AUDIO
    TITLE "0:"
    INDEX 01 07:55:33
  TRACK 307 AUDIO
    TITLE "5:cjc169_1031"
    INDEX 01 07:55:35
  TRACK 308 AUDIO
    TITLE "0:"
    INDEX 01 07:56:60
  TRACK 309 AUDIO
    TITLE "6:cjc169_1032"
    INDEX 01 07:57:37
  TRACK 310 AUDIO
    TITLE "0:"
    INDEX 01 07:59:21
  TRACK 311 AUDIO
    TITLE "5:cjc169_1033"
    INDEX 01 07:59:74
  TRACK 312 AUDIO
    TITLE "0:"
    INDEX 01 08:01:65
  TRACK 313 AUDIO
    TITLE "6:cjc169_1034"
    INDEX 01 08:02:13
  TRACK 314 AUDIO
    TITLE "0:"
    INDEX 01 08:03:09
  TRACK 315 AUDIO
    TITLE "5:cjc169_1035"
    INDEX 01 08:03:11
  TRACK 316 AUDIO
    TITLE "0:"
    INDEX 01 08:04:36
  TRACK 317 AUDIO
    TITLE "6:cjc169_1036"
    INDEX 01 08:04:59
  TRACK 318 AUDIO
    TITLE "0:"
    INDEX 01 08:05:57
  TRACK 319 AUDIO
    TITLE "5:cjc169_1037"
    INDEX 01 08:05:58
  TRACK 320 AUDIO
    TITLE "0:"
    INDEX 01 08:07:12
  TRACK 321 AUDIO
    TITLE "6:cjc169_1038"
    INDEX 01 08:07:73
  TRACK 322 AUDIO
    TITLE "0:"
    INDEX 01 08:09:48
  TRACK 323 AUDIO
    TITLE "5:cjc169_1039"
    INDEX 01 08:10:38
  TRACK 324 AUDIO
    TITLE "0:"
    INDEX 01 08:12:61
  TRACK 325 AUDIO
    TITLE "6:cjc169_1040"
    INDEX 01 08:13:01
  TRACK 326 AUDIO
    TITLE "0:"
    INDEX 01 08:13:70
  TRACK 327 AUDIO
    TITLE "5:cjc169_1041"
    INDEX 01 08:13:72
  TRACK 328 AUDIO
    TITLE "0:"
    INDEX 01 08:15:26
  TRACK 329 AUDIO
    TITLE "6:cjc169_1042"
    INDEX 01 08:15:57
  TRACK 330 AUDIO
    TITLE "0:"
    INDEX 01 08:16:52
  TRACK 331 AUDIO
    TITLE "5:cjc169_1043"
    INDEX 01 08:16:54
  TRACK 332 AUDIO
    TITLE "0:"
    INDEX 01 08:18:10
